<mxfile host="app.diagrams.net" modified="2023-09-22T03:13:24.205Z" agent="Mozilla/5.0 (Windows NT 10.0; Win64; x64) AppleWebKit/537.36 (KHTML, like Gecko) Chrome/116.0.0.0 Safari/537.36" etag="dpMuG7efX83JS7PKVc-O" version="21.8.0" type="github">
  <diagram name="第 1 页" id="frCIQMO-3XJSgt2fooyr">
    <mxGraphModel dx="1434" dy="790" grid="1" gridSize="10" guides="1" tooltips="1" connect="1" arrows="1" fold="1" page="1" pageScale="1" pageWidth="827" pageHeight="1169" math="0" shadow="0">
      <root>
        <mxCell id="0" />
        <mxCell id="1" parent="0" />
        <mxCell id="NnPRqkvGNmkPtIno0Bno-1" value="User" style="swimlane;fontStyle=1;align=center;verticalAlign=top;childLayout=stackLayout;horizontal=1;startSize=32;horizontalStack=0;resizeParent=1;resizeParentMax=0;resizeLast=0;collapsible=0;marginBottom=0;" vertex="1" parent="1">
          <mxGeometry x="212" y="20" width="156" height="104" as="geometry" />
        </mxCell>
        <mxCell id="NnPRqkvGNmkPtIno0Bno-2" value="-name: String" style="text;strokeColor=none;fillColor=none;align=left;verticalAlign=top;spacingLeft=4;spacingRight=4;overflow=hidden;rotatable=0;points=[[0,0.5],[1,0.5]];portConstraint=eastwest;" vertex="1" parent="NnPRqkvGNmkPtIno0Bno-1">
          <mxGeometry y="32" width="156" height="32" as="geometry" />
        </mxCell>
        <mxCell id="NnPRqkvGNmkPtIno0Bno-3" style="line;strokeWidth=1;fillColor=none;align=left;verticalAlign=middle;spacingTop=-1;spacingLeft=3;spacingRight=3;rotatable=0;labelPosition=right;points=[];portConstraint=eastwest;strokeColor=inherit;" vertex="1" parent="NnPRqkvGNmkPtIno0Bno-1">
          <mxGeometry y="64" width="156" height="8" as="geometry" />
        </mxCell>
        <mxCell id="NnPRqkvGNmkPtIno0Bno-4" value="+getName(): String" style="text;strokeColor=none;fillColor=none;align=left;verticalAlign=top;spacingLeft=4;spacingRight=4;overflow=hidden;rotatable=0;points=[[0,0.5],[1,0.5]];portConstraint=eastwest;" vertex="1" parent="NnPRqkvGNmkPtIno0Bno-1">
          <mxGeometry y="72" width="156" height="32" as="geometry" />
        </mxCell>
        <mxCell id="NnPRqkvGNmkPtIno0Bno-5" value="AudioMaterial" style="swimlane;fontStyle=1;align=center;verticalAlign=top;childLayout=stackLayout;horizontal=1;startSize=26.444444444444443;horizontalStack=0;resizeParent=1;resizeParentMax=0;resizeLast=0;collapsible=0;marginBottom=0;" vertex="1" parent="1">
          <mxGeometry x="20" y="193" width="326" height="112.44444444444444" as="geometry" />
        </mxCell>
        <mxCell id="NnPRqkvGNmkPtIno0Bno-6" style="line;strokeWidth=1;fillColor=none;align=left;verticalAlign=middle;spacingTop=-1;spacingLeft=3;spacingRight=3;rotatable=0;labelPosition=right;points=[];portConstraint=eastwest;strokeColor=inherit;" vertex="1" parent="NnPRqkvGNmkPtIno0Bno-5">
          <mxGeometry y="26.444444444444443" width="326" height="8" as="geometry" />
        </mxCell>
        <mxCell id="NnPRqkvGNmkPtIno0Bno-7" value="+browseMaterials(): List" style="text;strokeColor=none;fillColor=none;align=left;verticalAlign=top;spacingLeft=4;spacingRight=4;overflow=hidden;rotatable=0;points=[[0,0.5],[1,0.5]];portConstraint=eastwest;" vertex="1" parent="NnPRqkvGNmkPtIno0Bno-5">
          <mxGeometry y="34.44444444444444" width="326" height="26" as="geometry" />
        </mxCell>
        <mxCell id="NnPRqkvGNmkPtIno0Bno-8" value="+searchMaterials(keyword: String): List" style="text;strokeColor=none;fillColor=none;align=left;verticalAlign=top;spacingLeft=4;spacingRight=4;overflow=hidden;rotatable=0;points=[[0,0.5],[1,0.5]];portConstraint=eastwest;" vertex="1" parent="NnPRqkvGNmkPtIno0Bno-5">
          <mxGeometry y="60.44444444444444" width="326" height="26" as="geometry" />
        </mxCell>
        <mxCell id="NnPRqkvGNmkPtIno0Bno-9" value="+selectMaterial(material: AudioItem): void" style="text;strokeColor=none;fillColor=none;align=left;verticalAlign=top;spacingLeft=4;spacingRight=4;overflow=hidden;rotatable=0;points=[[0,0.5],[1,0.5]];portConstraint=eastwest;" vertex="1" parent="NnPRqkvGNmkPtIno0Bno-5">
          <mxGeometry y="86.44444444444444" width="326" height="26" as="geometry" />
        </mxCell>
        <mxCell id="NnPRqkvGNmkPtIno0Bno-10" value="AudioItem" style="swimlane;fontStyle=1;align=center;verticalAlign=top;childLayout=stackLayout;horizontal=1;startSize=28.4;horizontalStack=0;resizeParent=1;resizeParentMax=0;resizeLast=0;collapsible=0;marginBottom=0;" vertex="1" parent="1">
          <mxGeometry x="212" y="389" width="156" height="148.4" as="geometry" />
        </mxCell>
        <mxCell id="NnPRqkvGNmkPtIno0Bno-11" value="-name: String" style="text;strokeColor=none;fillColor=none;align=left;verticalAlign=top;spacingLeft=4;spacingRight=4;overflow=hidden;rotatable=0;points=[[0,0.5],[1,0.5]];portConstraint=eastwest;" vertex="1" parent="NnPRqkvGNmkPtIno0Bno-10">
          <mxGeometry y="28.4" width="156" height="28" as="geometry" />
        </mxCell>
        <mxCell id="NnPRqkvGNmkPtIno0Bno-12" value="-type: String" style="text;strokeColor=none;fillColor=none;align=left;verticalAlign=top;spacingLeft=4;spacingRight=4;overflow=hidden;rotatable=0;points=[[0,0.5],[1,0.5]];portConstraint=eastwest;" vertex="1" parent="NnPRqkvGNmkPtIno0Bno-10">
          <mxGeometry y="56.4" width="156" height="28" as="geometry" />
        </mxCell>
        <mxCell id="NnPRqkvGNmkPtIno0Bno-13" style="line;strokeWidth=1;fillColor=none;align=left;verticalAlign=middle;spacingTop=-1;spacingLeft=3;spacingRight=3;rotatable=0;labelPosition=right;points=[];portConstraint=eastwest;strokeColor=inherit;" vertex="1" parent="NnPRqkvGNmkPtIno0Bno-10">
          <mxGeometry y="84.4" width="156" height="8" as="geometry" />
        </mxCell>
        <mxCell id="NnPRqkvGNmkPtIno0Bno-14" value="+getName(): String" style="text;strokeColor=none;fillColor=none;align=left;verticalAlign=top;spacingLeft=4;spacingRight=4;overflow=hidden;rotatable=0;points=[[0,0.5],[1,0.5]];portConstraint=eastwest;" vertex="1" parent="NnPRqkvGNmkPtIno0Bno-10">
          <mxGeometry y="92.4" width="156" height="28" as="geometry" />
        </mxCell>
        <mxCell id="NnPRqkvGNmkPtIno0Bno-15" value="+getType(): String" style="text;strokeColor=none;fillColor=none;align=left;verticalAlign=top;spacingLeft=4;spacingRight=4;overflow=hidden;rotatable=0;points=[[0,0.5],[1,0.5]];portConstraint=eastwest;" vertex="1" parent="NnPRqkvGNmkPtIno0Bno-10">
          <mxGeometry y="120.4" width="156" height="28" as="geometry" />
        </mxCell>
        <mxCell id="NnPRqkvGNmkPtIno0Bno-16" value="使用" style="curved=1;startArrow=none;endArrow=open;endSize=12;exitX=0.08822613291092332;exitY=1;entryX=0.49971242331288346;entryY=0;rounded=0;" edge="1" parent="1" source="NnPRqkvGNmkPtIno0Bno-1" target="NnPRqkvGNmkPtIno0Bno-5">
          <mxGeometry relative="1" as="geometry">
            <Array as="points">
              <mxPoint x="183" y="159" />
            </Array>
          </mxGeometry>
        </mxCell>
        <mxCell id="NnPRqkvGNmkPtIno0Bno-17" value="浏览、搜索" style="curved=1;startArrow=none;endArrow=open;endSize=12;exitX=0.49971242331288346;exitY=1;entryX=0.030521437038988443;entryY=0;rounded=0;" edge="1" parent="1" source="NnPRqkvGNmkPtIno0Bno-5" target="NnPRqkvGNmkPtIno0Bno-10">
          <mxGeometry relative="1" as="geometry">
            <Array as="points">
              <mxPoint x="183" y="355" />
            </Array>
          </mxGeometry>
        </mxCell>
        <mxCell id="NnPRqkvGNmkPtIno0Bno-18" value="选择" style="curved=1;startArrow=none;endArrow=open;endSize=12;exitX=0.9163812388839486;exitY=1;entryX=0.9740859347558833;entryY=0;rounded=0;" edge="1" parent="1" source="NnPRqkvGNmkPtIno0Bno-1" target="NnPRqkvGNmkPtIno0Bno-10">
          <mxGeometry relative="1" as="geometry">
            <Array as="points">
              <mxPoint x="398" y="159" />
              <mxPoint x="398" y="355" />
            </Array>
          </mxGeometry>
        </mxCell>
      </root>
    </mxGraphModel>
  </diagram>
</mxfile>
